<svg width="0" height="0" class="hidden">
  <symbol fill="none" xmlns="http://www.w3.org/2000/svg" viewBox="0 0 24 24" id="assignment">
    <path d="M19.2 4h-4.368a2.732 2.732 0 00-5.264 0H5.2A1.2 1.2 0 004 5.2v15.6A1.2 1.2 0 005.2 22h14a1.2 1.2 0 001.2-1.2V5.2A1.2 1.2 0 0019.2 4zm-7-.356a1.092 1.092 0 110 2.184 1.092 1.092 0 010-2.184zm1.036 14.4h-4.3a.987.987 0 110-1.976h4.3a.988.988 0 010 1.976zm2.228-3.948H8.936a.988.988 0 010-1.976h6.528a.988.988 0 110 1.976zm0-3.948H8.936a.988.988 0 110-1.976h6.528a.988.988 0 110 1.976z" fill="currentColor" />
  </symbol>
  <symbol fill="none" xmlns="http://www.w3.org/2000/svg" viewBox="0 0 24 24" id="assignment-alt">
    <path d="M19.2 4h-4.368a2.732 2.732 0 00-5.264 0H5.2A1.2 1.2 0 004 5.2v15.6A1.2 1.2 0 005.2 22h14a1.2 1.2 0 001.2-1.2V5.2A1.2 1.2 0 0019.2 4zm-7-.356a1.092 1.092 0 110 2.184 1.092 1.092 0 010-2.184zM5.976 8.8a.588.588 0 01.292-.512.292.292 0 01.2-.088h5.24a.308.308 0 01.2.088.6.6 0 01.292.512v2.764a.604.604 0 01-.292.512.324.324 0 01-.2.084h-5.24a.308.308 0 01-.2-.084.596.596 0 01-.292-.512V8.8zM17.44 20.024H6.96a.988.988 0 010-1.972h10.48a.988.988 0 010 1.972zm0-3.948H6.96a.988.988 0 010-1.972h10.48a.988.988 0 010 1.972z" fill="currentColor" />
  </symbol>
  <symbol fill="none" xmlns="http://www.w3.org/2000/svg" viewBox="0 0 24 24" id="assignment-selected">
    <path d="M12.2 6.276c.418 0 .83.098 1.2.288l.693.348V2.1A.1.1 0 0014 2h-3.6a.1.1 0 00-.1.1v4.8l.692-.348a2.635 2.635 0 011.208-.276z" fill="currentColor" />
    <path d="M19.2 4.02h-3.128a.758.758 0 010 .1v5.164a.54.54 0 01-.8.484l-2.8-1.428a.652.652 0 00-.58 0l-2.8 1.428a.54.54 0 01-.8-.484V4.12a.758.758 0 010-.1H5.2A1.2 1.2 0 004 5.2v15.6A1.2 1.2 0 005.2 22h14a1.2 1.2 0 001.2-1.2V5.2a1.2 1.2 0 00-1.2-1.18zm-5.968 14.036h-4.3a.984.984 0 010-1.968h4.3a.984.984 0 010 1.968zm2.232-3.944H8.932a.984.984 0 010-1.968h6.532a.984.984 0 010 1.968z" fill="currentColor" />
  </symbol>
  <symbol fill="none" xmlns="http://www.w3.org/2000/svg" viewBox="0 0 24 24" id="attach-file">
    <path d="M18.602 7.704v6.668a.878.878 0 010 .1c-.052 4.16-3.08 7.528-6.8 7.528-3.72 0-6.8-3.424-6.8-7.628V8.428a.964.964 0 111.924 0v5.944c0 3.14 2.188 5.696 4.876 5.696s4.876-2.556 4.876-5.696V7.704c0-2.224-1.324-3.772-3.2-3.772-1.876 0-3.228 1.548-3.228 3.772v6.668c0 1.024.692 1.856 1.524 1.856.832 0 1.528-.836 1.528-1.872V8.428a.964.964 0 111.924 0v5.928c0 2.096-1.544 3.804-3.452 3.804s-3.388-1.644-3.444-3.688V7.704C8.306 4.4 10.47 2 13.458 2s5.144 2.4 5.144 5.704z" fill="currentColor" />
  </symbol>
  <symbol fill="none" xmlns="http://www.w3.org/2000/svg" viewBox="0 0 24 24" id="cancel">
    <path d="M19.552 17.597a1.409 1.409 0 01-1.991 1.991l-5.58-5.579-5.578 5.579a1.409 1.409 0 01-1.991-1.991l5.579-5.579L4.412 6.44a1.409 1.409 0 011.991-1.99l5.579 5.578 5.579-5.579a1.408 1.408 0 111.99 1.991l-5.578 5.58 5.579 5.578z" fill="currentColor" />
  </symbol>
  <symbol fill="none" xmlns="http://www.w3.org/2000/svg" viewBox="0 0 24 24" id="cancel-circle">
    <path d="M12 2a10 10 0 100 20 10 10 0 000-20zm4.8 13.112a1.2 1.2 0 01-.848 2.048 1.2 1.2 0 01-.836-.36L12 13.696 8.884 16.8a1.2 1.2 0 01-1.684 0 1.2 1.2 0 010-1.696L10.304 12 7.2 8.884A1.2 1.2 0 118.884 7.2L12 10.304 15.116 7.2A1.2 1.2 0 0116.8 8.884L13.696 12l3.104 3.112z" fill="currentColor" />
  </symbol>
  <symbol fill="none" xmlns="http://www.w3.org/2000/svg" viewBox="0 0 24 24" id="catalog">
    <path d="M20.571 12.871H3.43A1.429 1.429 0 002 14.3v6.271A1.429 1.429 0 003.429 22H20.57A1.429 1.429 0 0022 20.572v-6.277a1.429 1.429 0 00-1.429-1.424zM6.286 18.867a1.428 1.428 0 110-2.857 1.428 1.428 0 010 2.857zM20.571 2H3.43A1.429 1.429 0 002 3.429v6.276a1.429 1.429 0 001.429 1.428H20.57A1.429 1.429 0 0022 9.705V3.429A1.429 1.429 0 0020.571 2zM6.286 7.995a1.429 1.429 0 110-2.857 1.429 1.429 0 010 2.857z" fill="currentColor" />
  </symbol>
  <symbol fill="none" xmlns="http://www.w3.org/2000/svg" viewBox="0 0 24 24" id="check-circle">
    <path d="M12 2a10 10 0 100 20 10 10 0 000-20zm5.892 6.992l-7.58 8.108a1.228 1.228 0 01-1.784 0l-.048-.052-3.2-3.816A1 1 0 116.8 11.96l2.64 3.14 6.992-7.472a1 1 0 011.46 1.364z" fill="currentColor" />
  </symbol>
  <symbol fill="none" xmlns="http://www.w3.org/2000/svg" viewBox="0 0 24 24" id="check-outline">
    <path d="M8.574 19.385a1.692 1.692 0 01-1.184-.513l-.062-.072-5.025-5.964a1.283 1.283 0 011.959-1.656l4.348 5.169L19.778 4.405a1.284 1.284 0 111.876 1.754L9.774 18.872a1.666 1.666 0 01-1.2.513z" fill="currentColor" />
  </symbol>
  <symbol fill="none" xmlns="http://www.w3.org/2000/svg" viewBox="0 0 24 24" id="chevron-arrow-right">
    <path d="M9.7 17.309a.935.935 0 01-.651-1.606l3.787-3.694L9.05 8.315a.935.935 0 011.303-1.34l4.286 4.177a1.196 1.196 0 010 1.715l-4.286 4.177a.935.935 0 01-.652.265z" fill="currentColor" />
  </symbol>
  <symbol fill="none" xmlns="http://www.w3.org/2000/svg" viewBox="0 0 24 24" id="dashboard">
    <path d="M10.41 22H4.067a2.067 2.067 0 01-2.042-2.067v-8.478a.662.662 0 01.638-.658h7.747a.662.662 0 01.662.662v9.879a.662.662 0 01-.662.662zm9.524 0H13.59a.662.662 0 01-.662-.657v-3.215a.662.662 0 01.662-.662h7.748a.662.662 0 01.638.662v1.81A2.068 2.068 0 0119.934 22zm-6.344-6.668h7.748A.662.662 0 0022 14.67v-3.21a.662.662 0 00-.662-.663H13.59a.662.662 0 00-.661.662v3.21c0 .366.296.663.662.663zm7.748-6.664H2.662A.662.662 0 012 8.006V4.062A2.067 2.067 0 014.067 2h15.866A2.066 2.066 0 0122 4.062v3.944a.662.662 0 01-.662.662z" fill="currentColor" />
  </symbol>
  <symbol fill="none" xmlns="http://www.w3.org/2000/svg" viewBox="0 0 24 24" id="description">
    <path d="M19.276 10H13.6a1.2 1.2 0 01-1.2-1.2V3.124A1.124 1.124 0 0011.288 2H5.124A1.124 1.124 0 004 3.124v17.752A1.124 1.124 0 005.124 22h14.152a1.123 1.123 0 001.124-1.124v-9.752A1.123 1.123 0 0019.276 10zM7 8h2.4a1 1 0 110 2H7a1 1 0 010-2zm10.4 10H7a1 1 0 010-2h10.4a1 1 0 010 2zm0-4H7a1 1 0 010-2h10.4a1 1 0 010 2z" fill="currentColor" />
    <path d="M13.645 2.632v5.524a.848.848 0 00.844.844h5.363a.548.548 0 00.4-.928l-5.671-5.82a.544.544 0 00-.936.38z" fill="currentColor" />
  </symbol>
  <symbol fill="none" xmlns="http://www.w3.org/2000/svg" viewBox="0 0 24 24" id="description-checked">
    <path d="M13.645 2.632v5.524a.848.848 0 00.848.844h5.36a.544.544 0 00.4-.924L14.58 2.252a.548.548 0 00-.936.38z" fill="currentColor" />
    <path d="M19.276 10H13.6a1.2 1.2 0 01-1.2-1.2V3.128A1.124 1.124 0 0011.292 2H5.128A1.128 1.128 0 004 3.128v17.748A1.125 1.125 0 005.128 22h14.148a1.123 1.123 0 001.124-1.124v-9.748A1.126 1.126 0 0019.276 10zm-2.256 3.772l-5.292 5.66a1.169 1.169 0 01-1.684 0l-.044-.04-2.24-2.664a1 1 0 011.532-1.288l1.624 1.932L15.56 12.4a1 1 0 111.46 1.368v.004z" fill="currentColor" />
  </symbol>
  <symbol fill="none" xmlns="http://www.w3.org/2000/svg" viewBox="0 0 24 24" id="double-chevron-arrow-right">
    <path d="M4.624 21a1.585 1.585 0 01-1.125-2.7l6.233-6.28-6.233-6.281a1.585 1.585 0 112.25-2.23l7.031 7.08a2.039 2.039 0 010 2.862L5.749 20.53a1.586 1.586 0 01-1.125.47z" fill="currentColor" />
    <path d="M12.786 21a1.585 1.585 0 01-1.125-2.7l6.233-6.28-6.233-6.281a1.585 1.585 0 112.25-2.23l7.031 7.08a2.034 2.034 0 010 2.862l-7.026 7.079a1.584 1.584 0 01-1.13.47z" fill="currentColor" />
  </symbol>
  <symbol fill="none" xmlns="http://www.w3.org/2000/svg" viewBox="0 0 24 24" id="edit">
    <path d="M14.593 5.69a.26.26 0 00-.194-.08.417.417 0 00-.29.132l-4.365 4.361-4.371 4.376a.35.35 0 00-.052.473l3.717 3.717a.27.27 0 00.194.076.405.405 0 00.29-.128l4.375-4.361 4.366-4.366a.34.34 0 00.052-.474L14.593 5.69zm5.906-.53l-1.657-1.658A1.73 1.73 0 0017.614 3a1.852 1.852 0 00-1.312.55l-.573.568a1.01 1.01 0 00-.023 1.42l2.756 2.756a.946.946 0 00.686.28c.275 0 .54-.11.734-.303l.569-.573a1.795 1.795 0 00.047-2.539zM4.743 15.828a.516.516 0 00-.724 0l-.166.17-.848 4.523a.412.412 0 00.474.473l4.503-.838.17-.165a.516.516 0 000-.725l-3.409-3.438z" fill="currentColor" />
  </symbol>
  <symbol fill="none" xmlns="http://www.w3.org/2000/svg" viewBox="0 0 24 24" id="expand-chevron">
    <path d="M12 15.2a1.49 1.49 0 01-1.067-.452L6.33 10.03a1.2 1.2 0 011.722-1.677L12 12.403l3.947-4.05a1.202 1.202 0 011.722 1.677l-4.602 4.718A1.491 1.491 0 0112 15.2z" fill="currentColor" />
  </symbol>
  <symbol fill="none" xmlns="http://www.w3.org/2000/svg" viewBox="0 0 24 24" id="help-fill">
    <path d="M12 2a10 10 0 100 20 10 10 0 000-20zm.7 16.8a1.288 1.288 0 01-.964.348 1.272 1.272 0 01-.96-.348 1.312 1.312 0 010-1.768 1.3 1.3 0 01.948-.344 1.287 1.287 0 01.956.352 1.224 1.224 0 01.348.892 1.2 1.2 0 01-.328.868zm1.856-7.028l-1.164 1.148a2.704 2.704 0 00-.592 1.428.8.8 0 01-.8.66h-.556a.8.8 0 01-.8-.888c.038-.384.128-.76.268-1.12.3-.624.72-1.183 1.236-1.644a9.6 9.6 0 001.168-1.276c.247-.37.378-.804.376-1.248a1.892 1.892 0 00-.44-1.352 1.684 1.684 0 00-1.288-.468c-.48-.023-.95.14-1.312.456-.185.17-.323.385-.4.624a.948.948 0 01-.912.616h-.332a.984.984 0 01-.92-1.332c.185-.511.5-.966.912-1.32a4.352 4.352 0 012.964-.976c1.267 0 2.255.323 2.964.968A3.45 3.45 0 0116 8.744c0 1.032-.481 2.045-1.444 3.04v-.012z" fill="currentColor" />
  </symbol>
  <symbol fill="none" xmlns="http://www.w3.org/2000/svg" viewBox="0 0 24 24" id="help-outline">
    <path d="M11.763 15.92a1.173 1.173 0 00-.856.312 1.2 1.2 0 000 1.6 1.151 1.151 0 00.868.32 1.164 1.164 0 00.872-.32 1.078 1.078 0 00.308-.8 1.096 1.096 0 00-.316-.8 1.175 1.175 0 00-.876-.312zm.197-10.072a3.856 3.856 0 00-2.604.86 2.8 2.8 0 00-.8 1.164.912.912 0 00.108.836.892.892 0 00.736.4h.292a.868.868 0 00.836-.568c.066-.199.182-.378.336-.52a1.572 1.572 0 011.1-.38 1.42 1.42 0 011.084.4 1.6 1.6 0 01.368 1.14c0 .375-.111.74-.32 1.052a8.24 8.24 0 01-1.008 1.096 4.719 4.719 0 00-1.08 1.44c-.123.317-.203.65-.236.988a.753.753 0 00.744.824H12a.736.736 0 00.732-.616c.045-.44.218-.857.496-1.2l1.012-.996C15.076 10.9 15.5 10 15.5 9.1a3.052 3.052 0 00-.94-2.376 3.744 3.744 0 00-2.6-.876z" fill="currentColor" />
    <path d="M12 4a8 8 0 110 16 8 8 0 010-16zm0-2a10 10 0 100 20 10 10 0 000-20z" fill="currentColor" />
  </symbol>
  <symbol fill="none" xmlns="http://www.w3.org/2000/svg" viewBox="0 0 24 24" id="home">
    <path d="M11.72 3.12l-8.642 8.714a.259.259 0 00.18.443h2.29A.45.45 0 016 12.72v8.278h4.5V16.74a.285.285 0 01.28-.284h2.438a.285.285 0 01.28.284v4.258h4.5V12.72a.452.452 0 01.453-.454h2.293a.259.259 0 00.18-.443L12.282 3.12a.393.393 0 00-.562 0z" fill="currentColor" />
  </symbol>
  <symbol fill="none" xmlns="http://www.w3.org/2000/svg" viewBox="0 0 24 24" id="info-fill">
    <path d="M12 2a10 10 0 100 20 10 10 0 000-20zm0 4.432a1.14 1.14 0 110 2.28 1.14 1.14 0 010-2.28zM15.412 17.2a.4.4 0 01-.4.4H8.976a.4.4 0 01-.4-.4v-.756a.4.4 0 01.4-.4H11.2V11.28H9.28a.4.4 0 01-.4-.4v-.72a.4.4 0 01.4-.4h3.476a.232.232 0 01.228.228v6.068h2.04a.4.4 0 01.4.4l-.012.744z" fill="currentColor" />
  </symbol>
  <symbol fill="none" xmlns="http://www.w3.org/2000/svg" viewBox="0 0 24 24" id="info-line">
    <path d="M14.996 15.6h-1.764v-5.424a.304.304 0 00-.308-.308H9.752a.452.452 0 00-.452.452v.672a.456.456 0 00.452.452h1.636V15.6H9.476a.452.452 0 00-.452.452v.672a.452.452 0 00.452.476h5.52a.456.456 0 00.456-.452v-.692a.456.456 0 00-.456-.456zm-2.76-6.5a1.14 1.14 0 100-2.28 1.14 1.14 0 000 2.28z" fill="currentColor" />
    <path d="M12 4a8 8 0 110 16 8 8 0 010-16zm0-2a10 10 0 100 20 10 10 0 000-20z" fill="currentColor" />
  </symbol>
  <symbol fill="none" xmlns="http://www.w3.org/2000/svg" viewBox="0 0 24 24" id="item">
    <path d="M16.285 16.68h-2.232a1.06 1.06 0 01-1.08-1.08c0-.612.468-1.08 1.08-1.08h2.232c.612 0 1.08.468 1.08 1.08a1.06 1.06 0 01-1.08 1.08z" fill="currentColor" />
    <path d="M19.524 3H4.476A1.46 1.46 0 003 4.476v15.048A1.46 1.46 0 004.476 21h15.048A1.46 1.46 0 0021 19.524V4.476A1.46 1.46 0 0019.524 3zm-6.012 4.5l-.36-.18c-.72-.36-1.62-.36-2.304 0l-.36.18V5.16h3.024V7.5zm5.328 10.692c0 .36-.288.648-.648.648H5.808a.645.645 0 01-.648-.648V5.808c0-.36.288-.648.648-.648h2.52v4.752c0 .36.288.684.684.684a.678.678 0 00.288-.072l2.52-1.296a.327.327 0 01.36 0l2.52 1.296c.108.036.216.072.288.072.36 0 .684-.288.684-.684V5.16h2.736c.252 0 .432.18.432.432v12.6z" fill="currentColor" />
  </symbol>
  <symbol fill="none" xmlns="http://www.w3.org/2000/svg" viewBox="0 0 24 24" id="like-outline">
    <path d="M12 20.959a1.763 1.763 0 01-1.135-.409l-.032-.028c-.576-.506-1.13-.98-1.661-1.433l-.523-.457c-1.836-1.567-3.42-2.922-4.563-4.281C2.662 12.657 2 11.049 2 9.286a6.53 6.53 0 011.588-4.347A5.661 5.661 0 017.89 3 5.514 5.514 0 0112 4.853 5.521 5.521 0 0116.114 3a5.66 5.66 0 014.302 1.939A6.567 6.567 0 0122 9.286c0 1.767-.662 3.375-2.082 5.065-1.143 1.359-2.726 2.71-4.563 4.277l-.114.102a134.62 134.62 0 00-2.07 1.78l-.044.036A1.746 1.746 0 0112 20.96zM7.89 5.449a3.228 3.228 0 00-2.449 1.11 4.106 4.106 0 00-.992 2.727c0 1.17.466 2.244 1.51 3.51 1.045 1.265 2.527 2.498 4.282 3.995l.518.441 1.225 1.065c.575-.498 1.118-.959 1.653-1.412l.114-.098c1.75-1.498 3.265-2.787 4.277-3.991 1.013-1.204 1.523-2.34 1.523-3.51a4.127 4.127 0 00-.972-2.73 3.266 3.266 0 00-2.448-1.107 3.204 3.204 0 00-2.702 1.514c-.125.176-.239.36-.34.551a1.225 1.225 0 01-1.08.65h-.021a1.25 1.25 0 01-1.09-.674 4.837 4.837 0 00-.326-.527A3.195 3.195 0 007.89 5.45z" fill="currentColor" />
  </symbol>
  <symbol fill="none" xmlns="http://www.w3.org/2000/svg" viewBox="0 0 24 24" id="notification-fill">
    <path d="M4.624 21a1.585 1.585 0 01-1.125-2.7l6.233-6.28-6.233-6.281a1.585 1.585 0 112.25-2.23l7.031 7.08a2.039 2.039 0 010 2.862L5.749 20.53a1.586 1.586 0 01-1.125.47z" fill="currentColor" />
    <path d="M12.786 21a1.585 1.585 0 01-1.125-2.7l6.233-6.28-6.233-6.281a1.585 1.585 0 112.25-2.23l7.031 7.08a2.034 2.034 0 010 2.862l-7.026 7.079a1.584 1.584 0 01-1.13.47z" fill="currentColor" />
  </symbol>
  <symbol fill="none" xmlns="http://www.w3.org/2000/svg" viewBox="0 0 24 24" id="notification-outline">
    <path d="M11.805 21.3a2.864 2.864 0 01-2.775-2.168H5.143a1.522 1.522 0 01-1.075-2.604l.699-.696a.301.301 0 00.097-.197c.115-.87.502-3.798.617-4.94.253-2.515 1.637-4.624 3.66-5.625a2.686 2.686 0 015.335 0c2.024 1 3.411 3.11 3.664 5.62.101 1.076.458 3.814.61 4.941a.313.313 0 00.097.197l.7.703a1.521 1.521 0 01-1.075 2.604H14.58a2.868 2.868 0 01-2.775 2.165zm-5.81-4.043H9.65a1.154 1.154 0 01.822.342 1.175 1.175 0 01.346.837.986.986 0 101.972 0c0-.313.123-.614.342-.837a1.16 1.16 0 01.826-.342h3.657l-.097-.1a2.206 2.206 0 01-.628-1.273c-.153-1.138-.514-3.906-.622-5-.197-1.975-1.313-3.608-2.916-4.248a1.172 1.172 0 01-.744-1.198.816.816 0 10-1.626-.037v.037a1.176 1.176 0 01-.744 1.198c-1.6.636-2.715 2.27-2.916 4.256-.116 1.168-.503 4.125-.622 5.003a2.232 2.232 0 01-.628 1.273l-.078.089z" fill="currentColor" />
  </symbol>
  <symbol fill="none" xmlns="http://www.w3.org/2000/svg" viewBox="0 0 24 24" id="product-type">
    <path d="M16.315 3.935h-1.084a.264.264 0 00-.264.265v1.084c0 .146.118.264.264.264h1.084a.264.264 0 00.265-.264V4.2a.264.264 0 00-.265-.265zm3.549 10.968H18.78a.265.265 0 00-.264.265v1.084c0 .146.118.264.264.264h1.084a.264.264 0 00.264-.264v-1.084a.264.264 0 00-.264-.265zm-3.549 3.549h-1.084a.264.264 0 00-.264.264V19.8c0 .146.118.264.264.264h1.084a.264.264 0 00.265-.264v-1.084a.264.264 0 00-.265-.264zm3.549-10.968H18.78a.265.265 0 00-.264.264v1.084c0 .146.118.265.264.265h1.084a.264.264 0 00.264-.265V7.748a.264.264 0 00-.264-.264zm0 3.71H18.78a.265.265 0 00-.264.264v1.084c0 .146.118.264.264.264h1.084a.264.264 0 00.264-.264v-1.084a.265.265 0 00-.264-.264zm-1.348 7.522V19.8a.265.265 0 00.264.264 1.349 1.349 0 001.348-1.348.264.264 0 00-.264-.264H18.78a.265.265 0 00-.264.264zm-9.519-.264h-3.12a.265.265 0 01-.264-.265V5.813a.265.265 0 01.264-.265h3.12a.265.265 0 00.264-.264V4.2a.265.265 0 00-.264-.265H5.348A1.348 1.348 0 004 5.284v13.432a1.349 1.349 0 001.348 1.348h3.649a.265.265 0 00.264-.264v-1.084a.265.265 0 00-.264-.264zM12.065 2a.968.968 0 00-.967.968v18.064a.968.968 0 101.935 0V2.968A.968.968 0 0012.065 2zm6.715 3.548h1.084a.264.264 0 00.264-.264 1.348 1.348 0 00-1.348-1.349.264.264 0 00-.264.265v1.084a.265.265 0 00.264.264z" fill="currentColor" />
  </symbol>
  <symbol fill="none" xmlns="http://www.w3.org/2000/svg" viewBox="0 0 24 24" id="profile-alt">
    <path d="M16.396 7.981a3.948 3.948 0 01-2.464 3.63 3.962 3.962 0 01-4.301-.876 3.95 3.95 0 115.612-5.563 3.966 3.966 0 011.153 2.81zm1.583 12.018H6.899a1.837 1.837 0 01-1.881-1.575c-.042-.296-.01-.6.093-.88l.361-.894c.835-2.12 3.152-3.546 5.764-3.546h2.406c2.608 0 4.93 1.425 5.764 3.546l.373.912a1.83 1.83 0 01-1.8 2.437z" fill="currentColor" />
  </symbol>
  <symbol fill="none" xmlns="http://www.w3.org/2000/svg" viewBox="0 0 24 24" id="profile-fill">
    <path d="M11.997 2a9.997 9.997 0 00-9.891 11.45 10 10 0 002.36 5.126c.08.096.168.188.252.276l.044.048.036.036A9.958 9.958 0 0011.465 22h.532a9.916 9.916 0 007.199-3.068c.068-.064.132-.132.192-.2.196-.207.38-.425.552-.652A10 10 0 0011.997 2zm6.347 14.864c-.124.169-.258.33-.4.484l-.028.028-.02.024a6.892 6.892 0 00-2.4-1.372l-.256-.076a6.96 6.96 0 00-1.875-.26h-2.732c-1.169 0-2.318.3-3.34.868l-.227.132a6.974 6.974 0 00-.968.708.804.804 0 01-.096-.104v-.02a8 8 0 0110.553-11.87A8 8 0 0119.995 12a7.908 7.908 0 01-1.651 4.864z" fill="currentColor" />
    <path d="M11.997 6.552a3.915 3.915 0 00-2.768 6.685 3.915 3.915 0 102.768-6.685z" fill="currentColor" />
  </symbol>
  <symbol fill="none" xmlns="http://www.w3.org/2000/svg" viewBox="0 0 24 24" id="profile-outline">
    <path d="M11.997 7.792a2.723 2.723 0 110 5.447 2.723 2.723 0 010-5.447zm0-2a4.723 4.723 0 10-.008 9.446 4.723 4.723 0 00.008-9.446z" fill="currentColor" />
    <path d="M11.997 2a9.997 9.997 0 00-9.891 11.45 10 10 0 002.36 5.126c.08.096.168.188.252.276l.044.048.036.036A9.958 9.958 0 0011.465 22h.532a9.916 9.916 0 007.199-3.068c.068-.064.132-.132.192-.2.196-.207.38-.425.552-.652A10 10 0 0011.997 2zm1.6 17.84a7.204 7.204 0 01-.716.108h-.124c-.248.052-.504.052-.76.052h-.46a7.923 7.923 0 01-3.872-1.272 5.68 5.68 0 01.452-.312l.088-.052h.04a4.886 4.886 0 012.372-.616h2.724c.45.002.898.063 1.331.184l.172.052a4.947 4.947 0 011.464.776 7.788 7.788 0 01-2.711 1.08zm4.73-2.976a6.09 6.09 0 01-.4.48l-.031.032v.02a6.917 6.917 0 00-2.4-1.368l-.256-.076a6.96 6.96 0 00-1.875-.26h-2.712c-1.169 0-2.318.3-3.34.868l-.227.132a6.569 6.569 0 00-.972.728c-.036-.04-.076-.08-.112-.124v-.02A8 8 0 0116.08 5.116a7.999 7.999 0 012.292 11.76l-.044-.012z" fill="currentColor" />
  </symbol>
  <symbol fill="none" xmlns="http://www.w3.org/2000/svg" viewBox="0 0 24 24" id="refresh">
    <path d="M3 9.593V4.185a.46.46 0 01.279-.424.438.438 0 01.49.107l1.859 1.894a.12.12 0 00.084.036.117.117 0 00.085-.036 8.78 8.78 0 015.077-2.665 8.696 8.696 0 015.617 1.055A8.946 8.946 0 0120.3 8.488a9.157 9.157 0 01.409 5.803 9.012 9.012 0 01-3.162 4.846A8.73 8.73 0 0112.137 21a8.732 8.732 0 01-5.4-1.899 9.015 9.015 0 01-3.13-4.867 1.13 1.13 0 01.086-.823c.132-.253.354-.445.621-.535a1.037 1.037 0 01.825.104 1.063 1.063 0 01.497.679A6.881 6.881 0 008.004 17.4a6.664 6.664 0 004.125 1.475 6.66 6.66 0 004.145-1.412 6.876 6.876 0 002.424-3.705 6.986 6.986 0 00-.317-4.441 6.825 6.825 0 00-2.924-3.31 6.635 6.635 0 00-4.302-.786 6.702 6.702 0 00-3.872 2.066.127.127 0 000 .173l1.798 1.827a.456.456 0 01.105.501.44.44 0 01-.42.282h-5.32a.438.438 0 01-.323-.141A.455.455 0 013 9.593z" fill="currentColor" />
  </symbol>
  <symbol fill="none" xmlns="http://www.w3.org/2000/svg" viewBox="0 0 24 24" id="rotate-left">
    <path d="M18.792 9.074a8.577 8.577 0 00-7.436-3.988.113.113 0 01-.107-.068.113.113 0 01-.01-.044v-2.53a.416.416 0 00-.737-.292L6.88 5.74a.416.416 0 000 .603l3.622 3.593a.417.417 0 00.733-.3V7.213a.117.117 0 01.113-.112 6.534 6.534 0 014.789 1.89 6.427 6.427 0 011.188 7.494 6.429 6.429 0 01-1.7 2.08 6.577 6.577 0 01-7.999.112 6.432 6.432 0 01-2.5-6.323 1.002 1.002 0 00-1.536-1.01 1.02 1.02 0 00-.453.673A8.398 8.398 0 005.5 19.509a8.599 8.599 0 006.342 2.486 8.607 8.607 0 006.162-2.902 8.418 8.418 0 00.788-10.019z" fill="currentColor" />
  </symbol>
  <symbol fill="none" xmlns="http://www.w3.org/2000/svg" viewBox="0 0 24 24" id="queue">
    <path d="M20.495 2H7.783A1.504 1.504 0 006.28 3.504v13.392a.824.824 0 00.824.824h13.392A1.504 1.504 0 0022 16.216V3.504A1.504 1.504 0 0020.495 2zM18.3 11.084h-2.936v2.936a1.272 1.272 0 01-1.16 1.292 1.227 1.227 0 01-1.288-1.22v-3.008H10a1.272 1.272 0 01-1.292-1.16 1.224 1.224 0 011.22-1.288h3.008V5.7a1.268 1.268 0 011.14-1.3 1.224 1.224 0 011.288 1.22v3.008h3.008a1.224 1.224 0 011.2 1.288 1.268 1.268 0 01-1.272 1.168z" fill="currentColor" />
    <path d="M4.976 22A2.976 2.976 0 012 19.024V5.512A1.5 1.5 0 013.5 4h.948v15.024a.528.528 0 00.528.528H20v.948a1.5 1.5 0 01-1.512 1.5H4.976z" fill="currentColor" />
  </symbol>
  <symbol fill="none" xmlns="http://www.w3.org/2000/svg" viewBox="0 0 24 24" id="rotate-right">
    <path d="M4.292 9.058a8.581 8.581 0 017.456-3.992.112.112 0 00.117-.113V2.42a.417.417 0 01.716-.291l3.622 3.592a.416.416 0 010 .604l-3.621 3.597a.417.417 0 01-.734-.3V7.195a.116.116 0 00-.113-.112 6.527 6.527 0 00-4.797 1.892 6.435 6.435 0 00.513 9.585 6.572 6.572 0 008.006.113 6.438 6.438 0 002.5-6.33 1.004 1.004 0 01.735-1.143 1.02 1.02 0 011.254.805 8.418 8.418 0 01-2.363 7.501 8.597 8.597 0 01-12.504-.416 8.435 8.435 0 01-.787-10.032z" fill="currentColor" />
  </symbol>
  <symbol fill="none" xmlns="http://www.w3.org/2000/svg" viewBox="0 0 24 24" id="search">
    <path d="M19.636 18.075l-3.946-3.942a.286.286 0 01-.034-.376 6.912 6.912 0 10-1.91 1.906.298.298 0 01.376.03l3.984 3.996a1.13 1.13 0 001.249.227c.145-.065.274-.16.379-.28a1.131 1.131 0 00-.098-1.56zM6.332 12.94a4.68 4.68 0 117.18-6.008 4.68 4.68 0 01-7.18 6.008z" fill="currentColor" />
  </symbol>
  <symbol fill="none" xmlns="http://www.w3.org/2000/svg" viewBox="0 0 24 24" id="settings">
    <path d="M21.263 14.574l-1.765-1.27a.47.47 0 01-.192-.434 6.523 6.523 0 000-1.713.47.47 0 01.192-.435l1.765-1.274a.717.717 0 00.2-.944l-1.74-2.965a.73.73 0 00-.925-.3l-2.018.844a.491.491 0 01-.487-.061 7.606 7.606 0 00-1.56-.87.491.491 0 01-.3-.387l-.235-2.117A.734.734 0 0013.476 2H9.998a.726.726 0 00-.726.643l-.244 2.174a.474.474 0 01-.291.379 7.448 7.448 0 00-1.478.83.496.496 0 01-.479.057l-2.008-.87a.73.73 0 00-.926.3l-1.74 2.965a.717.717 0 00.2.944l1.757 1.274a.47.47 0 01.191.434 6.521 6.521 0 000 1.713.47.47 0 01-.191.435l-1.765 1.296a.717.717 0 00-.2.943l1.739 2.966a.73.73 0 00.926.3l2.009-.87a.496.496 0 01.482.056 7.4 7.4 0 001.47.844.473.473 0 01.291.378l.244 2.174a.726.726 0 00.73.635h3.478a.735.735 0 00.73-.643l.236-2.118a.49.49 0 01.3-.387 7.606 7.606 0 001.56-.87.491.491 0 01.487-.065l2.005.87a.73.73 0 00.926-.3l1.739-2.965a.718.718 0 00-.187-.948zm-9.483 1.178a3.752 3.752 0 110-7.504 3.752 3.752 0 010 7.504z" fill="currentColor" />
  </symbol>
  <symbol fill="none" xmlns="http://www.w3.org/2000/svg" viewBox="0 0 24 24" id="share">
    <path d="M16.2 8.548h-.472a.367.367 0 00-.372.368v1.26a.369.369 0 00.372.372h.472a.824.824 0 01.8.824v7.8a.824.824 0 01-.8.828H7.8a.824.824 0 01-.8-.828V11.38a.832.832 0 01.8-.832h.472a.369.369 0 00.372-.372v-1.26a.368.368 0 00-.372-.368H7.8A2.824 2.824 0 005 11.38v7.788A2.824 2.824 0 007.8 22h8.4a2.824 2.824 0 002.8-2.832V11.38a2.824 2.824 0 00-2.8-2.832z" fill="currentColor" />
    <path d="M10.2 6.204l.8-.8v9.312a1 1 0 102 0V5.404l.8.8a.98.98 0 001.404 0 1.008 1.008 0 000-1.416L12.724 2.3l-.312-.3h-.844l-2.76 2.8a1.008 1.008 0 000 1.416.984.984 0 001.392-.012z" fill="currentColor" />
  </symbol>
  <symbol fill="none" xmlns="http://www.w3.org/2000/svg" viewBox="0 0 24 24" id="share-social">
    <path d="M18.038 15.432a3.24 3.24 0 00-2.293.95l-6.232-3.62a3.511 3.511 0 000-1.318l6.377-3.7a3.269 3.269 0 005.337-1.629 3.293 3.293 0 00-1.692-3.762 3.265 3.265 0 00-4.023.868 3.29 3.29 0 00-.727 2.064c0 .221.02.442.063.659l-6.39 3.7a3.274 3.274 0 00-4.932.67 3.295 3.295 0 001.41 4.786 3.269 3.269 0 003.521-.543l6.353 3.697a2.965 2.965 0 00-.037.475 3.286 3.286 0 002.025 3.024 3.26 3.26 0 003.561-.718 3.283 3.283 0 00.703-3.575 3.263 3.263 0 00-3.023-2.02v-.008z" fill="currentColor" />
  </symbol>
  <symbol fill="none" xmlns="http://www.w3.org/2000/svg" viewBox="0 0 24 24" id="storage">
    <path d="M12.003 18.271a1.951 1.951 0 01-1-.272l-7.416-4.521a1.2 1.2 0 01-.4-1.633 1.168 1.168 0 011.6-.4l7.2 4.402 7.172-4.362a1.168 1.168 0 011.6.4 1.2 1.2 0 01-.4 1.633l-7.356 4.481a1.95 1.95 0 01-1 .272z" fill="currentColor" />
    <path d="M12.003 22a1.94 1.94 0 01-1-.284l-7.416-4.517a1.2 1.2 0 01-.4-1.633 1.163 1.163 0 011.6-.4l7.2 4.401 7.188-4.369a1.168 1.168 0 011.6.4 1.2 1.2 0 01-.4 1.637l-7.372 4.48a1.95 1.95 0 01-1 .285zm.001-7.458a1.939 1.939 0 01-1-.284L3.956 9.973a2 2 0 010-3.413l7.048-4.281a1.931 1.931 0 012 0l7.04 4.281a2 2 0 010 3.413l-7.04 4.285a1.97 1.97 0 01-1 .284zM5.72 8.27l6.284 3.82 6.284-3.82-6.284-3.825L5.72 8.269z" fill="currentColor" />
  </symbol>
  <symbol fill="none" xmlns="http://www.w3.org/2000/svg" viewBox="0 0 24 24" id="trash-outline">
    <path d="M17.82 7.23H6.98a1.154 1.154 0 00-.839.368 1.174 1.174 0 00-.315.872l.712 10.137A2.569 2.569 0 009.074 21h6.648a2.569 2.569 0 002.54-2.393l.704-10.137a1.172 1.172 0 00-.307-.872 1.153 1.153 0 00-.838-.368zM13.297 9.3l-.319 9.63h-1.154L11.5 9.3h1.796zm-4.712 9.16L7.949 9.3h1.502l.323 9.63h-.7a.503.503 0 01-.49-.47zm7.633 0a.508.508 0 01-.495.47h-.695l.323-9.63h1.522l-.655 9.16zm2.491-14.167h-2.59a1.526 1.526 0 01-1.44-.994.376.376 0 00-.344-.299h-3.87a.376.376 0 00-.343.299 1.526 1.526 0 01-1.432.994H6.035a1.035 1.035 0 100 2.07h12.682a1.035 1.035 0 000-2.07h-.008z" fill="currentColor" />
  </symbol>
  <symbol fill="none" xmlns="http://www.w3.org/2000/svg" viewBox="0 0 24 24" id="trash-fill">
    <path d="M18.967 8.47l-.704 10.137A2.57 2.57 0 0115.723 21H9.075a2.565 2.565 0 01-2.536-2.389L5.827 8.47a1.174 1.174 0 01.307-.872 1.141 1.141 0 01.842-.368h10.841a1.15 1.15 0 011.086.773c.052.15.074.308.064.467zm-.258-4.177h-2.59a1.526 1.526 0 01-1.44-.994.376.376 0 00-.344-.299h-3.87a.376.376 0 00-.343.299 1.526 1.526 0 01-1.432.994H6.035a1.035 1.035 0 100 2.07h12.682a1.035 1.035 0 000-2.07h-.008z" fill="currentColor" />
  </symbol>
  <symbol fill="none" xmlns="http://www.w3.org/2000/svg" viewBox="0 0 24 24" id="unfold-more">
    <path d="M15.798 7.316a.98.98 0 01-.707-.296l-2.687-2.704L9.717 7.02A1 1 0 118.304 5.6l3.222-3.232a1.237 1.237 0 011.757-.004L16.505 5.6a.995.995 0 010 1.412.978.978 0 01-.707.304zM12.404 22a1.226 1.226 0 01-.878-.368L8.304 18.4a1 1 0 111.413-1.412l2.687 2.696 2.687-2.708a1.002 1.002 0 011.709.715 1 1 0 01-.296.709l-3.222 3.232a1.237 1.237 0 01-.878.368z" fill="currentColor" />
  </symbol>
  <symbol fill="none" xmlns="http://www.w3.org/2000/svg" viewBox="0 0 24 24" id="visibility-on">
    <path d="M23.866 11.922a17.278 17.278 0 00-2.674-4.234C18.667 4.75 15.489 3.2 11.999 3.2c-3.49 0-6.72 1.55-9.236 4.488a16.8 16.8 0 00-2.64 4.253 1.06 1.06 0 000 .989 13.57 13.57 0 0011.876 6.59c8.396 0 11.747-6.326 11.881-6.595a1.056 1.056 0 00-.014-1.003zm-5.28-3.888a17.332 17.332 0 00-6.587-1.21 17.47 17.47 0 00-6.635 1.214A9.458 9.458 0 0112 5.268a9.415 9.415 0 016.567 2.766h.02zm-6.587.96c.327.002.652.06.96.172a1.822 1.822 0 101.92 3.096A2.904 2.904 0 1112 8.994zm8.943 4.344A11.446 11.446 0 0112 17.35a11.482 11.482 0 01-8.944-4.027 1.06 1.06 0 01.14-1.512 11.81 11.81 0 014.263-2.198 4.991 4.991 0 00-.553 2.275 5.093 5.093 0 0010.187 0 5.024 5.024 0 00-.547-2.266 12.04 12.04 0 014.253 2.218 1.062 1.062 0 01.144 1.498z" fill="currentColor" />
  </symbol>
  <symbol fill="none" xmlns="http://www.w3.org/2000/svg" viewBox="0 0 24 24" id="visibility-off">
    <path d="M22.428 19.815l-7.324-7.349-2.007-2.01L4.99 2.318a1.095 1.095 0 10-1.545 1.55l2.347 2.357A13.579 13.579 0 002.759 8.92a17.121 17.121 0 00-2.64 4.286 1.099 1.099 0 000 .994 13.555 13.555 0 0011.88 6.643 13.92 13.92 0 006.719-1.642l2.155 2.16a1.091 1.091 0 101.54-1.545h.015zm-12.105-9.048l1.747 1.752 1.267 1.267 1.061 1.042a2.907 2.907 0 01-4.428.367 2.91 2.91 0 01.377-4.428h-.024zM7.328 7.762l.696.692c-.909.19-1.799.462-2.66.81a10.934 10.934 0 011.964-1.502zm4.67 10.891a11.449 11.449 0 01-8.942-4.056 1.07 1.07 0 01.14-1.521 11.865 11.865 0 014.262-2.223 5.088 5.088 0 008.471 5.55l1.167 1.175a11.765 11.765 0 01-5.098 1.075zm11.866-5.467a17.522 17.522 0 00-2.673-4.272c-2.525-2.956-5.702-4.512-9.192-4.512a11.61 11.61 0 00-1.747.135l1.954 1.958a9.427 9.427 0 016.36 2.78 16.478 16.478 0 00-4.719-1.133l2.74 2.75a12.106 12.106 0 014.21 2.203 1.08 1.08 0 01.144 1.526c-.091.11-.192.221-.297.336l1.55 1.555a11.314 11.314 0 001.685-2.308 1.065 1.065 0 00-.015-1.018z" fill="currentColor" />
  </symbol>
  <symbol fill="none" xmlns="http://www.w3.org/2000/svg" viewBox="0 0 24 24" id="add">
    <path d="M20 12a1.333 1.333 0 01-1.333 1.333h-5.333v5.333a1.333 1.333 0 01-2.666 0v-5.333H5.335a1.333 1.333 0 110-2.666h5.333V5.334a1.333 1.333 0 112.666 0v5.333h5.333A1.333 1.333 0 0120 12z" fill="currentColor" />
  </symbol>
  <symbol fill="none" xmlns="http://www.w3.org/2000/svg" viewBox="0 0 24 24" id="add-square">
    <path d="M18.888 4.4a.712.712 0 01.712.712v13.776a.712.712 0 01-.712.712H5.112a.712.712 0 01-.712-.712V5.112a.712.712 0 01.712-.712h13.776zm0-2.4H5.112A3.112 3.112 0 002 5.112v13.776A3.112 3.112 0 005.112 22h13.776A3.112 3.112 0 0022 18.888V5.112A3.112 3.112 0 0018.888 2z" fill="currentColor" />
    <path d="M18.117 12a1.2 1.2 0 01-1.2 1.2H13.2v3.72a1.2 1.2 0 01-2.4 0V13.2H7.08a1.2 1.2 0 110-2.4h3.72V7.084a1.2 1.2 0 112.4 0V10.8h3.716a1.2 1.2 0 011.2 1.2z" fill="currentColor" />
  </symbol>
  <symbol fill="none" xmlns="http://www.w3.org/2000/svg" viewBox="0 0 24 24" id="arrow-left">
    <path d="M20 11.667a1 1 0 01-1 1H7.374l3.85 3.94a1.02 1.02 0 01-.321 1.65.976.976 0 01-1.083-.22l-5.516-5.62a1.073 1.073 0 010-1.497L9.82 5.297a.977.977 0 011.404 0 1.023 1.023 0 010 1.434L7.37 10.667H19a1 1 0 011 1z" fill="currentColor" />
  </symbol>
  <symbol fill="none" xmlns="http://www.w3.org/2000/svg" viewBox="0 0 24 24" id="arrow-right">
    <path d="M5 12.666h11.633l-3.86 3.94a1.027 1.027 0 000 1.43.979.979 0 001.407 0l5.516-5.623a1.07 1.07 0 000-1.494L14.18 5.296a.982.982 0 00-1.407 0 1.027 1.027 0 000 1.43l3.854 3.94H5a1 1 0 000 2z" fill="currentColor" />
  </symbol>
  <symbol fill="none" xmlns="http://www.w3.org/2000/svg" viewBox="0 0 9 6" id="unfold-arrow-down">
    <path d="M4.40406 6.00003C4.24058 6.00026 4.0787 5.96783 3.92788 5.90465C3.77706 5.84146 3.64033 5.74878 3.52569 5.63203L0.303667 2.40003C0.208472 2.30764 0.132596 2.19719 0.0804632 2.07512C0.0283307 1.95304 0.000986572 1.82178 2.62077e-05 1.68901C-0.000934157 1.55623 0.0245085 1.42459 0.0748696 1.30177C0.125231 1.17895 0.199502 1.06741 0.29335 0.973658C0.387198 0.879901 0.498743 0.805808 0.621477 0.755701C0.744212 0.705594 0.875677 0.680476 1.0082 0.681813C1.14073 0.683151 1.27166 0.710918 1.39337 0.763492C1.51507 0.816066 1.6251 0.892396 1.71704 0.988028L4.40406 3.68403L7.09107 0.976027C7.27956 0.788254 7.53478 0.683186 7.80058 0.683936C8.06639 0.684686 8.32102 0.791194 8.50844 0.980028C8.69587 1.16886 8.80074 1.42455 8.79999 1.69086C8.79924 1.95716 8.69293 2.21225 8.50445 2.40003L5.28243 5.63203C5.16752 5.74842 5.03073 5.84086 4.87998 5.90403C4.72922 5.96719 4.56747 5.99981 4.40406 6.00003Z" fill="currentColor" />
  </symbol>
  <symbol fill="none" xmlns="http://www.w3.org/2000/svg" viewBox="0 0 9 6" id="unfold-arrow-up">
    <path d="M7.79604 5.316C7.66446 5.31661 7.53411 5.29071 7.41271 5.23987C7.29131 5.18902 7.18135 5.11425 7.08935 5.02L4.40234 2.31601L1.71532 5.02C1.62226 5.11298 1.51182 5.18668 1.39033 5.2369C1.26883 5.28712 1.13865 5.31287 1.00722 5.31268C0.741788 5.31231 0.487374 5.20631 0.299949 5.018C0.112523 4.8297 0.00743912 4.57452 0.0078135 4.30859C0.00818788 4.04266 0.11399 3.78778 0.301945 3.60001L3.52397 0.368006C3.63888 0.251612 3.77566 0.159168 3.92642 0.0960065C4.07718 0.0328452 4.23893 0.000217755 4.40234 6.57052e-06C4.5655 -0.000526409 4.72715 0.0313709 4.87792 0.0938519C5.02869 0.156333 5.1656 0.248156 5.28071 0.364006L8.50273 3.60001C8.59556 3.69255 8.66923 3.80257 8.71949 3.92373C8.76976 4.04488 8.79563 4.1748 8.79563 4.30601C8.79563 4.43721 8.76976 4.56713 8.71949 4.68828C8.66923 4.80944 8.59556 4.91945 8.50273 5.012C8.41155 5.10788 8.30192 5.18425 8.18046 5.2365C8.059 5.28875 7.92823 5.3158 7.79604 5.316Z" fill="currentColor" />
  </symbol>
  <symbol fill="none" xmlns="http://www.w3.org/2000/svg" viewBox="0 0 12 24" id="facebook">
    <path d="M9.8 4H12V0.2C11.6 0.0999998 10.3 0 8.8 0C5.6 0 3.5 2 3.5 5.6V9H0V13.3H3.5V24H7.8V13.3H11.1L11.6 9H7.7V6.1C7.8 4.9 8.1 4 9.8 4Z" fill="currentColor" />
  </symbol>
  <symbol fill="none" xmlns="http://www.w3.org/2000/svg" viewBox="0 0 24 23" id="linkedin">
    <path d="M24 14.1V23H18.9V14.7C18.9 12.6 18.2 11.2 16.3 11.2C14.9 11.2 14 12.2 13.7 13.1C13.6 13.4 13.5 13.9 13.5 14.4V23H8.4C8.4 23 8.5 9 8.4 7.5H13.5V9.7C13.5 9.7 13.5 9.7 13.5 9.8V9.7C14.2 8.6 15.4 7.1 18.1 7.1C21.4 7.1 24 9.3 24 14.1ZM2.9 0C1.1 0 0 1.2 0 2.7C0 4.2 1.1 5.4 2.8 5.4C4.6 5.4 5.7 4.2 5.7 2.7C5.7 1.2 4.6 0 2.9 0ZM0.299999 22.9H5.4V7.5H0.299999V22.9Z" fill="currentColor" />
  </symbol>
  <symbol fill="none" xmlns="http://www.w3.org/2000/svg" viewBox="0 0 22 24" id="social-c">
    <path d="M16.7 16.9C15.5 17.9 13.8 18.6 12 18.6C8.1 18.6 5.4 15.7 5.4 11.7C5.4 7.7 8.1 5.1 12 5.1C13.7 5.1 15.4 5.6 16.7 6.8L17.4 7.5L21.3 3.9L20.3 3.2C18.1 1.2 15.2 0 12 0C5.1 0 0 5.1 0 12C0 18.9 5.1 24 12 24C15.2 24 18.1 22.8 20.3 20.8L21.3 20.1L17.4 16.2L16.7 16.9Z" fill="currentColor" />
    <path d="M11.8 15.9C13.9539 15.9 15.7 14.1539 15.7 12C15.7 9.84606 13.9539 8.09998 11.8 8.09998C9.64608 8.09998 7.89999 9.84606 7.89999 12C7.89999 14.1539 9.64608 15.9 11.8 15.9Z" fill="currentColor" />
  </symbol>
  <symbol fill="none" xmlns="http://www.w3.org/2000/svg" viewBox="0 0 25 20" id="email">
    <path d="M24.5827 0.645833C24.4785 0.541667 24.2702 0.4375 24.0618 0.333334C23.8535 0.229167 23.541 0.125 23.2285 0.125H1.77018C1.35352 0.125 1.04102 0.229167 0.728516 0.4375C0.624349 0.4375 0.624349 0.541667 0.520182 0.541667L0.416016 0.645833C-0.104818 1.27083 -0.104818 2.10417 0.416016 2.72917L10.3118 12.625C10.9368 13.25 11.666 13.4583 12.3952 13.4583C13.1243 13.4583 13.9577 13.1458 14.4785 12.625L24.3743 2.72917C25.1035 2.20833 25.1035 1.16667 24.5827 0.645833ZM12.4993 10.5417L4.99935 2.9375H20.1035L12.4993 10.5417Z" fill="currentColor" />
    <path d="M25 5.02087V17.8334C25 18.7709 24.2708 19.6042 23.2292 19.6042H1.77083C0.833333 19.6042 0 18.7709 0 17.8334V4.9167C0 4.70836 0.3125 4.50003 0.520833 4.70836L2.70833 6.89587C2.8125 7.00003 2.91667 7.20836 2.91667 7.31253V14.9167L6.66667 11.1667C6.77083 11.0625 7.08333 11.0625 7.1875 11.1667L8.75 12.7292C8.85417 12.8334 8.85417 13.1459 8.75 13.25L5.3125 16.6875H19.6875L16.25 13.3542C16.1458 13.25 16.1458 12.9375 16.25 12.8334L17.8125 11.2709C17.9167 11.1667 18.2292 11.1667 18.3333 11.2709L21.9792 14.9167V7.52086C21.9792 7.31253 22.0833 7.20836 22.1875 7.1042L24.375 4.9167C24.6875 4.6042 25 4.81253 25 5.02087Z" fill="currentColor" />
  </symbol>
  <symbol fill="none" xmlns="http://www.w3.org/2000/svg" viewBox="0 0 30 22" id="burger-menu">
    <path d="M27.4843 12.548H2.55098C2.09561 12.548 1.65888 12.3542 1.33688 12.0092C1.01488 11.6642 0.833984 11.1963 0.833984 10.7084C0.833984 10.2205 1.01488 9.75253 1.33688 9.40753C1.65888 9.06253 2.09561 8.86871 2.55098 8.86871H27.4843C27.9397 8.86871 28.3764 9.06253 28.6984 9.40753C29.0204 9.75253 29.2013 10.2205 29.2013 10.7084C29.2013 11.1963 29.0204 11.6642 28.6984 12.0092C28.3764 12.3542 27.9397 12.548 27.4843 12.548Z" fill="currentColor" />
    <path d="M27.4843 21.3333H2.55098C2.09561 21.3333 1.65888 21.1395 1.33688 20.7945C1.01488 20.4495 0.833984 19.9816 0.833984 19.4937C0.833984 19.0058 1.01488 18.5379 1.33688 18.1929C1.65888 17.8479 2.09561 17.6541 2.55098 17.6541H27.4843C27.9397 17.6541 28.3764 17.8479 28.6984 18.1929C29.0204 18.5379 29.2013 19.0058 29.2013 19.4937C29.2013 19.9816 29.0204 20.4495 28.6984 20.7945C28.3764 21.1395 27.9397 21.3333 27.4843 21.3333Z" fill="currentColor" />
    <path d="M27.4843 3.76263H2.55098C2.09561 3.76263 1.65888 3.56881 1.33688 3.22381C1.01488 2.87881 0.833984 2.41089 0.833984 1.92299C0.833984 1.43508 1.01488 0.967162 1.33688 0.622162C1.65888 0.277162 2.09561 0.0833435 2.55098 0.0833435L27.4843 0.0833435C27.9397 0.0833435 28.3764 0.277162 28.6984 0.622162C29.0204 0.967162 29.2013 1.43508 29.2013 1.92299C29.2013 2.41089 29.0204 2.87881 28.6984 3.22381C28.3764 3.56881 27.9397 3.76263 27.4843 3.76263Z" fill="currentColor" />
  </symbol>
  <symbol fill="none" xmlns="http://www.w3.org/2000/svg" viewBox="0 0 24 24" id="import">
    <path d="M12 4C13.5823 4 15.129 4.46919 16.4446 5.34824C17.7602 6.22729 18.7855 7.47672 19.391 8.93853C19.9965 10.4003 20.155 12.0089 19.8463 13.5607C19.5376 15.1126 18.7757 16.538 17.6569 17.6569C16.538 18.7757 15.1126 19.5376 13.5607 19.8463C12.0089 20.155 10.4003 19.9965 8.93854 19.391C7.47673 18.7855 6.2273 17.7602 5.34825 16.4446C4.4692 15.129 4 13.5822 4 12C4 9.87827 4.84286 7.84344 6.34315 6.34314C7.84344 4.84285 9.87827 4 12 4ZM12 2C10.0222 2 8.08879 2.58649 6.4443 3.6853C4.79981 4.78412 3.51809 6.3459 2.76121 8.17316C2.00433 10.0004 1.8063 12.0111 2.19215 13.9509C2.578 15.8907 3.53041 17.6725 4.92894 19.0711C6.32746 20.4696 8.10929 21.422 10.0491 21.8078C11.9889 22.1937 13.9996 21.9957 15.8268 21.2388C17.6541 20.4819 19.2159 19.2002 20.3147 17.5557C21.4135 15.9112 22 13.9778 22 12C22 9.34783 20.9464 6.8043 19.0711 4.92893C17.1957 3.05357 14.6522 2 12 2V2Z" fill="currentColor" />
    <path d="M12.0003 6C12.1992 6 12.39 6.07902 12.5306 6.21966C12.6713 6.36031 12.7503 6.55107 12.7503 6.74997L12.7503 15.4697L15.7052 12.5823C15.8482 12.4417 16.0408 12.3629 16.2414 12.3629C16.442 12.3629 16.6346 12.4417 16.7776 12.5823C16.8482 12.6506 16.9043 12.7323 16.9426 12.8227C16.9809 12.9131 17.0006 13.0103 17.0006 13.1085C17.0006 13.2067 16.9809 13.3039 16.9426 13.3943C16.9043 13.4847 16.8482 13.5664 16.7776 13.6347L12.5628 17.7721C12.4125 17.9182 12.2112 18 12.0015 18C11.7919 18 11.5906 17.9182 11.4403 17.7721L7.22297 13.6347C7.15243 13.5664 7.09634 13.4847 7.05804 13.3943C7.01974 13.3039 7 13.2067 7 13.1085C7 13.0103 7.01974 12.9131 7.05804 12.8227C7.09634 12.7323 7.15243 12.6506 7.22297 12.5823C7.36645 12.4415 7.55944 12.3626 7.76045 12.3626C7.96146 12.3626 8.15444 12.4415 8.29793 12.5823L11.2503 15.4722L11.2503 6.74997C11.2503 6.55107 11.3293 6.36031 11.47 6.21966C11.6106 6.07902 11.8014 6 12.0003 6Z" fill="currentColor" />
  </symbol>
    <symbol fill="none" xmlns="http://www.w3.org/2000/svg" viewBox="0 0 16 14" id="arrow-back">
    <path d="M16 6.66707C16 6.93227 15.8946 7.18662 15.7071 7.37415C15.5196 7.56168 15.2652 7.66703 15 7.66703H3.37377L7.22364 11.6069C7.41113 11.7976 7.51619 12.0544 7.51619 12.3219C7.51619 12.5893 7.41113 12.8461 7.22364 13.0368C7.13258 13.1309 7.02354 13.2057 6.90301 13.2567C6.78247 13.3078 6.6529 13.3341 6.522 13.3341C6.39109 13.3341 6.26152 13.3078 6.14098 13.2567C6.02045 13.2057 5.91141 13.1309 5.82035 13.0368L0.30388 7.41704C0.109021 7.21668 0 6.94822 0 6.66873C0 6.38925 0.109021 6.12078 0.30388 5.92042L5.82035 0.297288C5.91141 0.20324 6.02045 0.128459 6.14098 0.077388C6.26152 0.0263174 6.39109 0 6.522 0C6.6529 0 6.78247 0.0263174 6.90301 0.077388C7.02354 0.128459 7.13258 0.20324 7.22364 0.297288C7.41134 0.488601 7.51648 0.745917 7.51648 1.01393C7.51648 1.28194 7.41134 1.53926 7.22364 1.73057L3.37044 5.6671H15C15.2652 5.6671 15.5196 5.77245 15.7071 5.95998C15.8946 6.14751 16 6.40186 16 6.66707Z" fill="#10102D"></path>
  </symbol>
  <symbol fill="none" xmlns="http://www.w3.org/2000/svg" viewBox="0 0 19 19" id="error-icon">
    <path d="M9.5 0.75C7.76941 0.75 6.07769 1.26318 4.63876 2.22464C3.19983 3.1861 2.07832 4.55267 1.41606 6.15152C0.753791 7.75037 0.580512 9.50971 0.918133 11.207C1.25575 12.9044 2.08911 14.4635 3.31282 15.6872C4.53653 16.9109 6.09563 17.7442 7.79296 18.0819C9.49029 18.4195 11.2496 18.2462 12.8485 17.5839C14.4473 16.9217 15.8139 15.8002 16.7754 14.3612C17.7368 12.9223 18.25 11.2306 18.25 9.5C18.25 7.17936 17.3281 4.95376 15.6872 3.31282C14.0462 1.67187 11.8206 0.75 9.5 0.75V0.75ZM13.7 12.223C13.8467 12.3698 13.9465 12.5569 13.9869 12.7604C14.0274 12.964 14.0066 13.1749 13.9272 13.3667C13.8478 13.5584 13.7134 13.7224 13.5409 13.8377C13.3684 13.9531 13.1655 14.0148 12.958 14.015C12.6823 14.0101 12.4195 13.897 12.2265 13.7L9.5 10.984L6.7735 13.7C6.57707 13.8934 6.31244 14.0019 6.03675 14.0019C5.76106 14.0019 5.49643 13.8934 5.3 13.7C5.10337 13.5031 4.99293 13.2363 4.99293 12.958C4.99293 12.6797 5.10337 12.4129 5.3 12.216L8.016 9.5L5.3 6.7735C5.18252 6.68208 5.08582 6.56672 5.01631 6.43508C4.94681 6.30344 4.90609 6.15853 4.89685 6.00995C4.88762 5.86138 4.91009 5.71253 4.96276 5.5733C5.01543 5.43407 5.09711 5.30763 5.20237 5.20237C5.30763 5.09711 5.43407 5.01543 5.5733 4.96276C5.71254 4.91008 5.86138 4.88762 6.00995 4.89685C6.15853 4.90608 6.30344 4.9468 6.43508 5.01631C6.56672 5.08581 6.68208 5.18252 6.7735 5.3L9.5 8.016L12.2265 5.3C12.4285 5.14281 12.681 5.06482 12.9365 5.08069C13.1919 5.09657 13.4328 5.20521 13.6138 5.38621C13.7948 5.5672 13.9034 5.80808 13.9193 6.06355C13.9352 6.31902 13.8572 6.57149 13.7 6.7735L10.984 9.5L13.7 12.223Z" fill="#DA4848"></path>
  </symbol>
  <symbol fill="none" xmlns="http://www.w3.org/2000/svg" viewBox="0 0 10 10" id="close-icon">
    <path d="M9.40576 8.26357C9.55965 8.41766 9.64609 8.62653 9.64609 8.8443C9.64609 9.06207 9.55965 9.27094 9.40576 9.42503C9.25167 9.57892 9.0428 9.66536 8.82503 9.66536C8.60726 9.66536 8.39839 9.57892 8.2443 9.42503L4.99004 6.17076L1.73577 9.42503C1.58169 9.57892 1.37282 9.66536 1.15505 9.66536C0.937272 9.66536 0.728403 9.57892 0.574318 9.42503C0.420425 9.27094 0.333984 9.06207 0.333984 8.8443C0.333984 8.62653 0.420425 8.41766 0.574318 8.26357L3.82858 5.00931L0.574318 1.75504C0.429158 1.59926 0.350132 1.39321 0.353888 1.18032C0.357644 0.967418 0.44389 0.764289 0.594455 0.613724C0.74502 0.463159 0.948149 0.376913 1.16105 0.373157C1.37395 0.369401 1.57999 0.448427 1.73577 0.593587L4.99004 3.84785L8.2443 0.593587C8.31954 0.512847 8.41026 0.448088 8.51107 0.403173C8.61187 0.358257 8.72069 0.334106 8.83103 0.332159C8.94137 0.330212 9.05098 0.35051 9.1533 0.391841C9.25563 0.433173 9.34858 0.494691 9.42662 0.572726C9.50465 0.650762 9.56617 0.743715 9.6075 0.846042C9.64884 0.948368 9.66913 1.05797 9.66719 1.16831C9.66524 1.27865 9.64109 1.38747 9.59617 1.48828C9.55126 1.58908 9.4865 1.67981 9.40576 1.75504L6.15149 5.00931L9.40576 8.26357Z" fill="#BBC9DF"></path>
  </symbol>
  <symbol fill="none" xmlns="http://www.w3.org/2000/svg" viewBox="0 0 24 24" id="arrow-down">
    <path d="M12 15.2C11.8009 15.1998 11.6039 15.1597 11.4206 15.0821C11.2373 15.0045 11.0713 14.891 10.9326 14.7483L6.33144 10.0296C6.11332 9.80065 5.99431 9.49499 6.00021 9.1789C6.00611 8.86281 6.13644 8.56179 6.36294 8.34111C6.58944 8.12043 6.89386 7.99787 7.21017 8.00003C7.52649 8.00218 7.82921 8.12887 8.05268 8.35261L12 12.4034L15.9473 8.35261C16.1708 8.12887 16.4735 8.00218 16.7898 8.00003C17.1061 7.99787 17.4106 8.12043 17.6371 8.34111C17.8636 8.56179 17.9939 8.86281 17.9998 9.1789C18.0057 9.49499 17.8867 9.80065 17.6686 10.0296L13.0674 14.7483C12.9287 14.891 12.7627 15.0045 12.5794 15.0821C12.3961 15.1597 12.1991 15.1998 12 15.2V15.2Z" fill="#10102D"></path>
  </symbol>
</svg>
